<svg xmlns="http://www.w3.org/2000/svg" viewBox="0 0 500 500"><g id="freepik--trees-2--inject-65"><g id="freepik--Tree--inject-65"><g id="freepik--tree--inject-65"><path d="M332.75,203.13a4.09,4.09,0,0,1,2.16.39,22,22,0,0,1,3.52,2.5,7.19,7.19,0,0,0,3.91,1.68,3.14,3.14,0,0,0,3.25-2.26,2.25,2.25,0,0,1,.19-.73,1,1,0,0,1,1.23-.31,6.33,6.33,0,0,1,1.18.68c1.46.86,3.29.67,5,.42,1.39-.2,3.15-.81,3.14-2.22,0-.92-.8-1.6-1.43-2.26s-1.15-1.74-.57-2.45a1.66,1.66,0,0,1,.81-.5c1.74-.56,3.87.19,5.34-.9a3.06,3.06,0,0,0,.77-3.68,4.66,4.66,0,0,0-3.13-2.39c-1.17-.3-2.66-.44-3.1-1.56s.39-2.06,1.26-2.66a9.14,9.14,0,0,0,2.51-1.9,3,3,0,0,0,.08-3.12,3.82,3.82,0,0,0-2.62-1.8,5.57,5.57,0,0,1-1.59-.35,1,1,0,0,1-.59-1.34c.15-.29.49-.43.68-.7a1.27,1.27,0,0,0-.47-1.66,6.49,6.49,0,0,0-1.78-.68c-1.26-.42-1.91-1.09-1.54-2.37s2.18-1.23,2.72-2.51c.48-1.13-.83-3.53-1.85-4.22a22.9,22.9,0,0,0-3.35-1.49,3.57,3.57,0,0,1-2.27-2.67c-.09-1.26.85-2.31,1.61-3.31s1.42-2.39.75-3.45-2.07-1.08-3.22-1.45a5.19,5.19,0,0,1-3.17-2.86c-.31-.71-.46-1.48-.83-2.16-1.14-2.11-4-3-6.23-2.77a2.53,2.53,0,0,0-2.12,1.44,3.3,3.3,0,0,0-.77,1.46c-.17,1,.37,2.31-.59,3.09-1.46,1.18-3.7-.41-3.62,2.23a11.45,11.45,0,0,0,.49,3.29c.4,1.11,1.2,1.59.53,2.84-.85,1.61-1.41,1.6-3.13,1.59-1.25,0-2.29-.07-3.2.88-1.6,1.66-.65,3.16.78,4.44,1.62,1.45.76,2.09.55,4-.11.91.1,1.19-.71,1.79-1.53,1.14-2.39.75-2,3,.39,2-.21,1.34-2,2.1-1.56.67-2.59,2.36-3.86,3.41-.81.67-2.05,1.19-2.13,2.38-.15,2.27,2.67,1.77,4,2.31,2.19.89,1.53,3.76-.18,4.84s-4.45,1.56-4.6,4.16c-.11,2,1,2.43,2.57,3.1,1.24.53,1.08.69,1.08,2.16,0,3,1,3.81,3.93,3.33a7.3,7.3,0,0,1,2.82-.23c1.12.33.74.61.78,1.55.08,2.39,2.87,1.72,4.05.69C329.19,204.69,330.91,203.31,332.75,203.13Z" style="fill:#E8B4FA"></path><path d="M355.1,198.07c1.33-.43,2.9-.09,4.22-.4a16.41,16.41,0,0,0-2.37-.37,6.68,6.68,0,0,0-5.1,2,4.61,4.61,0,0,1,1,3.07c-3.31.9-6.58-3.55-9.75-2.2.2,1.61,0,3.77-1.55,4.12a2.56,2.56,0,0,1-2.42-1.16c-.57-.75-.92-1.65-1.49-2.4a5.07,5.07,0,0,0-6.75-1c-.86.62-1.93,1.56-2.79.94s-.36-2.48-1.37-3c-.67-.34-1.62.2-2.19-.3a1.55,1.55,0,0,1-.38-.83c-.41-1.7-.76-3.66.31-5,.95-1.22,3-2,2.75-3.51-.19-1.32-1.86-1.71-3.17-1.87s-3-.77-2.92-2.1,1.82-1.92,2.08-3.2c.11-.54-.07-1.15.18-1.65.37-.75,1.44-.78,2.07-1.33,1.13-1,.25-2.86.57-4.33.23-1,1.07-1.86,1.35-2.89.56-2.05-1.31-4-3.26-4.84a11.6,11.6,0,0,1-2.23-1l-.07-.05a4.08,4.08,0,0,0,1.61,2.57c1.62,1.45.76,2.09.55,4-.11.91.1,1.19-.71,1.79-1.53,1.14-2.39.75-2,3,.39,2-.21,1.34-2,2.1-1.57.67-2.6,2.36-3.87,3.41-.81.67-2.05,1.19-2.13,2.38-.15,2.27,2.67,1.77,4,2.31,2.19.89,1.53,3.76-.18,4.84s-4.45,1.56-4.6,4.16c-.11,2,1,2.43,2.57,3.1,1.24.53,1.08.69,1.08,2.16,0,3,1,3.81,3.93,3.33a7.3,7.3,0,0,1,2.82-.23c1.12.33.74.61.78,1.55.08,2.39,2.87,1.72,4.05.69,1.36-1.18,3.08-2.56,4.92-2.74a4.09,4.09,0,0,1,2.16.39,22,22,0,0,1,3.52,2.5,7.19,7.19,0,0,0,3.91,1.68,3.14,3.14,0,0,0,3.25-2.26,2.25,2.25,0,0,1,.19-.73,1,1,0,0,1,1.23-.31,6.33,6.33,0,0,1,1.18.68c1.46.86,3.29.67,5,.42,1.39-.2,3.15-.81,3.14-2.22,0-.92-.8-1.6-1.43-2.26s-1.15-1.74-.57-2.45A1.66,1.66,0,0,1,355.1,198.07Z" style="opacity:0.2"></path><path d="M328.19,178.66l8,15.85v-7.29l.81-31.07,1.19,31.07v4.9L347,176.76l-8.78,18.86v48.15a.49.49,0,0,1-.3.4,1.53,1.53,0,0,1-1.41,0,.5.5,0,0,1-.29-.4V198.55Z" style="fill:#263238"></path></g></g><g id="freepik--tree--inject-65"><g id="freepik--tree--inject-65"><path d="M361.27,222a3.6,3.6,0,0,1,2,.35,20.57,20.57,0,0,1,3.18,2.25,6.38,6.38,0,0,0,3.53,1.53,2.84,2.84,0,0,0,2.94-2,1.79,1.79,0,0,1,.17-.65,1,1,0,0,1,1.11-.29,5.73,5.73,0,0,1,1.07.62c1.32.78,3,.6,4.48.38,1.26-.18,2.85-.74,2.85-2,0-.83-.73-1.44-1.3-2s-1-1.57-.51-2.22a1.53,1.53,0,0,1,.72-.44c1.58-.52,3.5.17,4.83-.82a2.77,2.77,0,0,0,.7-3.33,4.22,4.22,0,0,0-2.83-2.16c-1.06-.27-2.4-.39-2.8-1.41s.35-1.85,1.13-2.4a8,8,0,0,0,2.27-1.72,2.72,2.72,0,0,0,.08-2.82,3.46,3.46,0,0,0-2.37-1.62,5.29,5.29,0,0,1-1.44-.32,1,1,0,0,1-.53-1.21c.14-.26.44-.4.61-.64a1.14,1.14,0,0,0-.42-1.49,5.61,5.61,0,0,0-1.61-.62c-1.14-.38-1.73-1-1.39-2.14s2-1.11,2.46-2.27-.76-3.19-1.67-3.81a21.71,21.71,0,0,0-3-1.36,3.25,3.25,0,0,1-2.06-2.41c-.08-1.13.77-2.09,1.46-3s1.28-2.15.68-3.12-1.87-1-2.91-1.3a4.75,4.75,0,0,1-2.87-2.59c-.28-.64-.41-1.34-.74-1.95-1-1.91-3.63-2.74-5.64-2.51a2.29,2.29,0,0,0-1.91,1.3,3,3,0,0,0-.7,1.32c-.16.92.33,2.09-.54,2.79-1.32,1.07-3.34-.36-3.27,2a10.35,10.35,0,0,0,.45,3c.36,1,1.08,1.44.48,2.56-.78,1.45-1.28,1.45-2.84,1.44-1.12,0-2.06-.06-2.88.79-1.45,1.5-.59,2.86.7,4,1.46,1.31.68,1.89.49,3.59-.09.82.1,1.07-.64,1.61-1.38,1-2.16.69-1.77,2.7.36,1.84-.19,1.21-1.78,1.9-1.42.6-2.35,2.12-3.49,3.08-.74.6-1.86,1.08-1.93,2.15-.13,2.05,2.42,1.6,3.63,2.09,2,.8,1.39,3.4-.16,4.37s-4,1.41-4.15,3.76c-.1,1.8.92,2.2,2.32,2.8,1.11.48,1,.62,1,2,0,2.68.9,3.44,3.55,3a6.7,6.7,0,0,1,2.55-.21c1,.31.67.56.7,1.41.08,2.16,2.6,1.55,3.67.62C358.05,223.4,359.6,222.16,361.27,222Z" style="fill:#E8B4FA"></path><path d="M361.27,222a3.6,3.6,0,0,1,2,.35,20.57,20.57,0,0,1,3.18,2.25,6.38,6.38,0,0,0,3.53,1.53,2.84,2.84,0,0,0,2.94-2,1.79,1.79,0,0,1,.17-.65,1,1,0,0,1,1.11-.29,5.73,5.73,0,0,1,1.07.62c1.32.78,3,.6,4.48.38,1.26-.18,2.85-.74,2.85-2,0-.83-.73-1.44-1.3-2s-1-1.57-.51-2.22a1.53,1.53,0,0,1,.72-.44c1.58-.52,3.5.17,4.83-.82a2.77,2.77,0,0,0,.7-3.33,4.22,4.22,0,0,0-2.83-2.16c-1.06-.27-2.4-.39-2.8-1.41s.35-1.85,1.13-2.4a8,8,0,0,0,2.27-1.72,2.72,2.72,0,0,0,.08-2.82,3.46,3.46,0,0,0-2.37-1.62,5.29,5.29,0,0,1-1.44-.32,1,1,0,0,1-.53-1.21c.14-.26.44-.4.61-.64a1.14,1.14,0,0,0-.42-1.49,5.61,5.61,0,0,0-1.61-.62c-1.14-.38-1.73-1-1.39-2.14s2-1.11,2.46-2.27-.76-3.19-1.67-3.81a21.71,21.71,0,0,0-3-1.36,3.25,3.25,0,0,1-2.06-2.41c-.08-1.13.77-2.09,1.46-3s1.28-2.15.68-3.12-1.87-1-2.91-1.3a4.75,4.75,0,0,1-2.87-2.59c-.28-.64-.41-1.34-.74-1.95-1-1.91-3.63-2.74-5.64-2.51a2.29,2.29,0,0,0-1.91,1.3,3,3,0,0,0-.7,1.32c-.16.92.33,2.09-.54,2.79-1.32,1.07-3.34-.36-3.27,2a10.35,10.35,0,0,0,.45,3c.36,1,1.08,1.44.48,2.56-.78,1.45-1.28,1.45-2.84,1.44-1.12,0-2.06-.06-2.88.79-1.45,1.5-.59,2.86.7,4,1.46,1.31.68,1.89.49,3.59-.09.82.1,1.07-.64,1.61-1.38,1-2.16.69-1.77,2.7.36,1.84-.19,1.21-1.78,1.9-1.42.6-2.35,2.12-3.49,3.08-.74.6-1.86,1.08-1.93,2.15-.13,2.05,2.42,1.6,3.63,2.09,2,.8,1.39,3.4-.16,4.37s-4,1.41-4.15,3.76c-.1,1.8.92,2.2,2.32,2.8,1.11.48,1,.62,1,2,0,2.68.9,3.44,3.55,3a6.7,6.7,0,0,1,2.55-.21c1,.31.67.56.7,1.41.08,2.16,2.6,1.55,3.67.62C358.05,223.4,359.6,222.16,361.27,222Z" style="opacity:0.30000000000000004"></path><path d="M381.46,217.43c1.21-.4,2.63-.09,3.82-.37a14.85,14.85,0,0,0-2.14-.34,6.05,6.05,0,0,0-4.61,1.84,4.14,4.14,0,0,1,.92,2.77c-3,.81-5.95-3.21-8.81-2,.18,1.45,0,3.4-1.4,3.72a2.3,2.3,0,0,1-2.19-1.05c-.51-.67-.83-1.49-1.35-2.17a4.58,4.58,0,0,0-6.1-.88c-.77.56-1.74,1.41-2.52.85s-.32-2.24-1.24-2.7c-.61-.3-1.46.18-2-.27a1.3,1.3,0,0,1-.34-.75c-.37-1.53-.68-3.3.28-4.55s2.68-1.79,2.48-3.18c-.16-1.18-1.67-1.54-2.86-1.68s-2.7-.7-2.64-1.9,1.65-1.74,1.88-2.89c.1-.5-.06-1,.16-1.49.34-.68,1.31-.71,1.88-1.21,1-.9.22-2.58.51-3.91.21-.94,1-1.68,1.22-2.61.5-1.85-1.18-3.62-2.95-4.38a10.48,10.48,0,0,1-2-.93l-.06,0a3.68,3.68,0,0,0,1.45,2.32c1.46,1.31.68,1.89.49,3.59-.09.82.1,1.07-.64,1.61-1.38,1-2.16.69-1.77,2.7.36,1.84-.19,1.21-1.78,1.9-1.42.6-2.35,2.12-3.49,3.08-.74.6-1.86,1.08-1.93,2.15-.13,2.05,2.42,1.6,3.63,2.09,2,.8,1.39,3.4-.16,4.37s-4,1.41-4.15,3.76c-.1,1.8.92,2.2,2.32,2.8,1.11.48,1,.62,1,2,0,2.68.9,3.44,3.55,3a6.7,6.7,0,0,1,2.55-.21c1,.31.67.56.7,1.41.08,2.16,2.6,1.55,3.67.62,1.23-1.07,2.78-2.31,4.45-2.47a3.6,3.6,0,0,1,2,.35,20.57,20.57,0,0,1,3.18,2.25,6.38,6.38,0,0,0,3.53,1.53,2.84,2.84,0,0,0,2.94-2,1.79,1.79,0,0,1,.17-.65,1,1,0,0,1,1.11-.29,5.73,5.73,0,0,1,1.07.62c1.32.78,3,.6,4.48.38,1.26-.18,2.85-.74,2.85-2,0-.83-.73-1.44-1.3-2s-1-1.57-.51-2.22A1.53,1.53,0,0,1,381.46,217.43Z" style="opacity:0.2"></path><path d="M357.14,199.88l7.23,14.33v-6.6l.73-28.08,1.07,28.08v4.44l7.94-13.89-7.94,17.05v43.52a.45.45,0,0,1-.26.36,1.38,1.38,0,0,1-1.28,0,.43.43,0,0,1-.26-.36V217.86Z" style="fill:#263238"></path></g></g></g><g id="freepik--high-school-building--inject-65"><g id="freepik--Building--inject-65"><polygon points="297.92 122.52 351.88 153.88 351.88 257.16 297.92 225.81 297.92 122.52" style="fill:#263238"></polygon><path d="M350.14,155.6l-52.22-30.15q-4,4.7-11.94,6.57l51.78,30S341.1,161.25,350.14,155.6Z" style="fill:#f0f0f0"></path><path d="M332.74,161.86a11.1,11.1,0,0,0,10,0l8.79-5.08c2.77-1.6,2.77-4.19,0-5.79L300.1,121.27l-2.18,1.25,50.62,29.42c1.66,1,1.66,2.51,0,3.47l-8.17,4.66a6.67,6.67,0,0,1-6,0l-50.6-29.35-2.47,1.42Z" style="fill:#455a64"></path><path d="M281.27,132.14V235.42l51.47,29.71a11.1,11.1,0,0,0,10,0l8.79-5.07a3.53,3.53,0,0,0,2.08-2.9V153.88a3.54,3.54,0,0,1-2.08,2.9l-8.79,5.08a11.1,11.1,0,0,1-10,0Z" style="fill:#263238"></path><path d="M337.76,163.06a10.27,10.27,0,0,0,5-1.2l8.79-5.08a3.54,3.54,0,0,0,2.08-2.9V257.16a3.53,3.53,0,0,1-2.08,2.9l-8.79,5.07a10.27,10.27,0,0,1-5,1.2Z" style="fill:#37474f"></path><polygon points="275.85 135.32 329.81 166.68 329.81 269.96 275.85 238.6 275.85 135.32" style="fill:#5c5cbf"></polygon><path d="M328.07,168.39l-52.22-30.15q-4,4.69-11.94,6.57l51.78,30S319,174.05,328.07,168.39Z" style="fill:#fff"></path><path d="M310.67,174.65a11.1,11.1,0,0,0,10,0l8.79-5.08c2.77-1.59,2.77-4.19,0-5.79L278,134.06l-2.18,1.26,50.62,29.41c1.66,1,1.66,2.51,0,3.47l-8.17,4.67a6.67,6.67,0,0,1-6,0l-50.6-29.35-2.47,1.42Z" style="fill:#8787db"></path><path d="M259.2,144.93V248.21l51.47,29.72a11.1,11.1,0,0,0,10,0l8.79-5.08a3.53,3.53,0,0,0,2.08-2.9V166.67a3.53,3.53,0,0,1-2.08,2.9l-8.79,5.09a11.1,11.1,0,0,1-10,0Z" style="fill:#5c5cbf"></path><path d="M315.69,175.86a10.27,10.27,0,0,0,5-1.2l8.79-5.09a3.53,3.53,0,0,0,2.08-2.9V270a3.53,3.53,0,0,1-2.08,2.9l-8.79,5.08a10.27,10.27,0,0,1-5,1.2Z" style="fill:#6f6ed7"></path><polygon points="297.92 122.52 351.88 153.88 351.88 257.16 297.92 225.81 297.92 122.52" style="fill:#E8B4FA"></polygon><path d="M350.15,155.6l-52.23-30.15q-4,4.7-11.94,6.57l51.78,30S341.11,161.25,350.15,155.6Z" style="fill:#fff"></path><path d="M332.74,161.86a11.1,11.1,0,0,0,10,0l8.79-5.08c2.77-1.6,2.77-4.19,0-5.79L300.1,121.27l-2.18,1.25,50.62,29.42c1.66,1,1.66,2.51,0,3.47l-8.17,4.66a6.67,6.67,0,0,1-6,0l-50.6-29.35-2.47,1.42Z" style="fill:#E8B4FA"></path><path d="M332.74,161.86a11.1,11.1,0,0,0,10,0l8.79-5.08c2.77-1.6,2.77-4.19,0-5.79L300.1,121.27l-2.18,1.25,50.62,29.42c1.66,1,1.66,2.51,0,3.47l-8.17,4.66a6.67,6.67,0,0,1-6,0l-50.6-29.35-2.47,1.42Z" style="fill:#fff;opacity:0.4"></path><path d="M281.28,132.14V235.42l51.46,29.71a11.1,11.1,0,0,0,10,0l8.79-5.07a3.53,3.53,0,0,0,2.08-2.9V153.88a3.54,3.54,0,0,1-2.08,2.9l-8.79,5.08a11.1,11.1,0,0,1-10,0Z" style="fill:#E8B4FA"></path><path d="M281.28,132.14V235.42l51.46,29.71a11.1,11.1,0,0,0,10,0l8.79-5.07a3.53,3.53,0,0,0,2.08-2.9V153.88a3.54,3.54,0,0,1-2.08,2.9l-8.79,5.08a11.1,11.1,0,0,1-10,0Z" style="fill:#fff;opacity:0.2"></path><path d="M337.76,163.06a10.27,10.27,0,0,0,5-1.2l8.79-5.08a3.54,3.54,0,0,0,2.08-2.9V257.16a3.53,3.53,0,0,1-2.08,2.9l-8.79,5.07a10.27,10.27,0,0,1-5,1.2Z" style="fill:#E8B4FA"></path><path d="M337.76,163.06a10.27,10.27,0,0,0,5-1.2l8.79-5.08a3.54,3.54,0,0,0,2.08-2.9V257.16a3.53,3.53,0,0,1-2.08,2.9l-8.79,5.07a10.27,10.27,0,0,1-5,1.2Z" style="fill:#fff;opacity:0.6000000000000001"></path><polygon points="275.85 135.32 329.81 166.68 329.81 269.96 275.85 238.6 275.85 135.32" style="fill:#E8B4FA"></polygon><polygon points="275.85 135.32 329.81 166.68 329.81 269.96 275.85 238.6 275.85 135.32" style="opacity:0.30000000000000004"></polygon><path d="M328.08,168.39l-52.23-30.15q-4,4.69-11.94,6.57l51.78,30S319,174.05,328.08,168.39Z" style="fill:#fafafa"></path><path d="M310.67,174.65a11.1,11.1,0,0,0,10,0l8.79-5.08c2.77-1.59,2.77-4.19,0-5.79L278,134.06l-2.18,1.26,50.62,29.41c1.67,1,1.66,2.51,0,3.47l-8.17,4.67a6.67,6.67,0,0,1-6,0l-50.6-29.35-2.47,1.42Z" style="fill:#E8B4FA"></path><path d="M310.67,174.65a11.1,11.1,0,0,0,10,0l8.79-5.08c2.77-1.59,2.77-4.19,0-5.79L278,134.06l-2.18,1.26,50.62,29.41c1.67,1,1.66,2.51,0,3.47l-8.17,4.67a6.67,6.67,0,0,1-6,0l-50.6-29.35-2.47,1.42Z" style="opacity:0.15"></path><path d="M259.21,144.93V248.21l51.46,29.72a11.1,11.1,0,0,0,10,0l8.79-5.08a3.53,3.53,0,0,0,2.08-2.9V166.67a3.53,3.53,0,0,1-2.08,2.9l-8.79,5.09a11.1,11.1,0,0,1-10,0Z" style="fill:#E8B4FA"></path><path d="M259.21,144.93V248.21l51.46,29.72a11.1,11.1,0,0,0,10,0l8.79-5.08a3.53,3.53,0,0,0,2.08-2.9V166.67a3.53,3.53,0,0,1-2.08,2.9l-8.79,5.09a11.1,11.1,0,0,1-10,0Z" style="opacity:0.30000000000000004"></path><path d="M315.69,175.86a10.27,10.27,0,0,0,5-1.2l8.79-5.09a3.53,3.53,0,0,0,2.08-2.9V270a3.53,3.53,0,0,1-2.08,2.9l-8.79,5.08a10.27,10.27,0,0,1-5,1.2Z" style="fill:#E8B4FA"></path><polygon points="304.47 155.96 233.7 115.08 233.7 246.43 304.47 287.29 304.47 155.96" style="fill:#E8B4FA"></polygon><polygon points="304.47 155.96 233.7 115.08 233.7 246.43 304.47 287.29 304.47 155.96" style="fill:#fff;opacity:0.30000000000000004"></polygon><polygon points="233.7 115.08 68.31 210.57 139.08 251.45 304.47 155.97 233.7 115.08" style="fill:#37474f"></polygon><polygon points="76.44 210.57 139.08 246.76 296.34 155.97 233.7 119.78 76.44 210.57" style="fill:#E8B4FA"></polygon><polygon points="139.08 251.45 139.08 382.78 304.47 287.3 304.47 155.97 139.08 251.45" style="fill:#E8B4FA"></polygon><polygon points="139.08 251.45 139.08 382.78 304.47 287.3 304.47 155.97 139.08 251.45" style="fill:#fff;opacity:0.6000000000000001"></polygon><polygon points="139.08 251.45 68.31 210.57 68.31 341.9 139.08 382.78 139.08 251.45" style="fill:#E8B4FA"></polygon><polygon points="139.08 251.45 68.31 210.57 68.31 341.9 139.08 382.78 139.08 251.45" style="fill:#fff;opacity:0.30000000000000004"></polygon><polygon points="68.31 210.57 68.31 219.95 139.08 260.83 139.08 251.45 68.31 210.57" style="fill:#263238"></polygon><polygon points="304.47 155.97 139.08 251.45 139.08 260.83 304.47 165.35 304.47 155.97" style="fill:#455a64"></polygon><polygon points="68.31 321.97 68.31 341.9 139.08 382.78 139.08 362.85 68.31 321.97" style="fill:#e0e0e0"></polygon><polygon points="304.47 267.36 139.08 362.85 139.08 382.78 304.47 287.3 304.47 267.36" style="fill:#f5f5f5"></polygon><polygon points="233.7 119.78 233.7 129.16 84.56 215.26 76.44 210.57 233.7 119.78" style="opacity:0.2"></polygon><polygon points="233.7 119.78 233.7 129.16 288.22 160.66 296.34 155.97 233.7 119.78" style="opacity:0.1"></polygon><polygon points="297.92 186 297.92 217.08 282.39 226.05 282.39 194.97 295.03 187.67 297.92 186" style="fill:#455a64"></polygon><polygon points="295.03 215.4 297.92 217.08 297.92 186 295.03 187.67 295.03 215.4" style="fill:#37474f"></polygon><polygon points="295.03 187.67 295.03 215.4 282.39 222.7 282.39 194.97 295.03 187.67" style="fill:#E8B4FA"></polygon><polygon points="297.92 227.26 297.92 258.34 282.39 267.31 282.39 236.22 295.03 228.93 297.92 227.26" style="fill:#455a64"></polygon><polygon points="295.03 228.93 297.92 227.26 297.92 258.34 295.03 256.66 295.03 228.93" style="fill:#37474f"></polygon><polygon points="295.03 228.93 295.03 256.66 282.39 263.96 282.39 236.22 295.03 228.93" style="fill:#E8B4FA"></polygon><polygon points="163.12 262.25 163.12 293.33 147.59 302.3 147.59 271.22 160.23 263.92 163.12 262.25" style="fill:#455a64"></polygon><polygon points="160.23 291.65 163.12 293.33 163.12 262.25 160.23 263.92 160.23 291.65" style="fill:#37474f"></polygon><polygon points="160.23 263.92 160.23 291.65 147.59 298.95 147.59 271.22 160.23 263.92" style="fill:#E8B4FA"></polygon><polygon points="163.12 303.51 163.12 334.59 147.59 343.56 147.59 312.47 160.23 305.18 163.12 303.51" style="fill:#455a64"></polygon><polygon points="160.23 305.18 163.12 303.51 163.12 334.59 160.23 332.91 160.23 305.18" style="fill:#37474f"></polygon><polygon points="160.23 305.18 160.23 332.91 147.59 340.21 147.59 312.47 160.23 305.18" style="fill:#E8B4FA"></polygon><polygon points="73.09 252.36 127.05 283.73 127.05 387 73.09 355.65 73.09 252.36" style="fill:#E8B4FA"></polygon><polygon points="73.09 252.36 127.05 283.73 127.05 387 73.09 355.65 73.09 252.36" style="opacity:0.30000000000000004"></polygon><path d="M125.32,285.44,73.09,255.29q-4,4.7-11.94,6.57l51.78,30S116.28,291.09,125.32,285.44Z" style="fill:#fafafa"></path><path d="M107.91,291.7a11.1,11.1,0,0,0,10,0l8.79-5.08c2.78-1.6,2.78-4.19,0-5.79L75.27,251.11l-2.18,1.25,50.62,29.42c1.67,1,1.67,2.51,0,3.47l-8.17,4.66a6.65,6.65,0,0,1-6,0L58.91,260.56,56.44,262Z" style="fill:#E8B4FA"></path><path d="M107.91,291.7a11.1,11.1,0,0,0,10,0l8.79-5.08c2.78-1.6,2.78-4.19,0-5.79L75.27,251.11l-2.18,1.25,50.62,29.42c1.67,1,1.67,2.51,0,3.47l-8.17,4.66a6.65,6.65,0,0,1-6,0L58.91,260.56,56.44,262Z" style="opacity:0.15"></path><path d="M56.45,262V365.26L107.91,395a11.1,11.1,0,0,0,10,0l8.8-5.07a3.52,3.52,0,0,0,2.07-2.9V283.72a3.52,3.52,0,0,1-2.07,2.9l-8.8,5.09a11.16,11.16,0,0,1-10,0Z" style="fill:#E8B4FA"></path><path d="M56.45,262V365.26L107.91,395a11.1,11.1,0,0,0,10,0l8.8-5.07a3.52,3.52,0,0,0,2.07-2.9V283.72a3.52,3.52,0,0,1-2.07,2.9l-8.8,5.09a11.16,11.16,0,0,1-10,0Z" style="opacity:0.30000000000000004"></path><path d="M112.93,292.9a10.24,10.24,0,0,0,5-1.19l8.8-5.09a3.52,3.52,0,0,0,2.07-2.9V387a3.52,3.52,0,0,1-2.07,2.9L118,395a10.24,10.24,0,0,1-5,1.2Z" style="fill:#E8B4FA"></path><polygon points="51.02 265.16 104.98 296.52 104.98 399.8 51.02 368.44 51.02 265.16" style="fill:#E8B4FA"></polygon><path d="M103.25,298.23,51,268.08q-4,4.69-11.94,6.57l51.78,30S94.21,303.89,103.25,298.23Z" style="fill:#fff"></path><path d="M85.84,304.49a11.1,11.1,0,0,0,10,0l8.79-5.07c2.78-1.6,2.78-4.2,0-5.8L53.2,263.9,51,265.16l50.62,29.41c1.67,1,1.67,2.52,0,3.47l-8.17,4.67a6.65,6.65,0,0,1-6,0L36.84,273.35l-2.47,1.43Z" style="fill:#E8B4FA"></path><path d="M85.84,304.49a11.1,11.1,0,0,0,10,0l8.79-5.07c2.78-1.6,2.78-4.2,0-5.8L53.2,263.9,51,265.16l50.62,29.41c1.67,1,1.67,2.52,0,3.47l-8.17,4.67a6.65,6.65,0,0,1-6,0L36.84,273.35l-2.47,1.43Z" style="fill:#fff;opacity:0.4"></path><path d="M34.38,274.77V378.05l51.46,29.72a11.1,11.1,0,0,0,10,0l8.8-5.08a3.52,3.52,0,0,0,2.07-2.9V296.51a3.52,3.52,0,0,1-2.07,2.9l-8.8,5.09a11.1,11.1,0,0,1-10,0Z" style="fill:#E8B4FA"></path><path d="M34.38,274.77V378.05l51.46,29.72a11.1,11.1,0,0,0,10,0l8.8-5.08a3.52,3.52,0,0,0,2.07-2.9V296.51a3.52,3.52,0,0,1-2.07,2.9l-8.8,5.09a11.1,11.1,0,0,1-10,0Z" style="fill:#fff;opacity:0.2"></path><path d="M90.86,305.7a10.24,10.24,0,0,0,5-1.2l8.8-5.09a3.52,3.52,0,0,0,2.07-2.9V399.79a3.52,3.52,0,0,1-2.07,2.9l-8.8,5.08a10.24,10.24,0,0,1-5,1.2Z" style="fill:#E8B4FA"></path><path d="M90.86,305.7a10.24,10.24,0,0,0,5-1.2l8.8-5.09a3.52,3.52,0,0,0,2.07-2.9V399.79a3.52,3.52,0,0,1-2.07,2.9l-8.8,5.08a10.24,10.24,0,0,1-5,1.2Z" style="fill:#fff;opacity:0.6000000000000001"></path><polygon points="185.69 374.63 185.69 207.05 279.12 153.11 279.12 320.69 185.69 374.63" style="fill:#E8B4FA"></polygon><polygon points="185.69 374.63 185.69 207.05 279.12 153.11 279.12 320.69 185.69 374.63" style="fill:#fff;opacity:0.1"></polygon><path d="M262.47,330.27,202.34,365V333.7c0-22.14,13.46-47.86,30.06-57.44h0c16.6-9.59,30.06.59,30.06,22.73Z" style="fill:#263238"></path><polygon points="190.69 360.21 190.69 365.98 234.44 391.23 234.44 385.46 190.69 360.21" style="fill:#e0e0e0"></polygon><polygon points="190.69 360.21 274.12 312.04 317.87 337.29 234.44 385.46 190.69 360.21" style="fill:#f5f5f5"></polygon><polygon points="317.87 343.06 234.44 391.23 234.44 385.46 317.87 337.29 317.87 343.06" style="fill:#ebebeb"></polygon><polygon points="190.69 365.98 185.69 368.86 234.44 397 327.86 343.06 317.87 337.29 317.87 343.06 234.44 391.23 190.69 365.98" style="fill:#f5f5f5"></polygon><polygon points="185.69 374.63 185.69 368.86 234.44 397 234.44 402.77 185.69 374.63" style="fill:#e0e0e0"></polygon><polygon points="327.86 343.06 327.86 348.83 234.44 402.77 234.44 397 327.86 343.06" style="fill:#ebebeb"></polygon><polygon points="234.44 353.52 223.27 359.97 234.44 366.42 245.61 359.97 234.44 353.52" style="fill:#fafafa"></polygon><polygon points="245.61 359.97 245.61 372.87 234.44 379.32 234.44 366.42 245.61 359.97" style="fill:#ebebeb"></polygon><polygon points="223.27 359.97 223.27 372.87 234.44 379.32 234.44 366.42 223.27 359.97" style="fill:#e0e0e0"></polygon><path d="M239.29,302.83a2.44,2.44,0,0,0-1.42-2,7.6,7.6,0,0,0-6.86,0,2.42,2.42,0,0,0-1.42,2v56.46a2.4,2.4,0,0,0,1.42,2,7.6,7.6,0,0,0,6.86,0,2.42,2.42,0,0,0,1.42-2Z" style="fill:#455a64"></path><path d="M231,306.2a2.42,2.42,0,0,0-1.42,2,2.39,2.39,0,0,0,1.42,2,7.54,7.54,0,0,0,6.86,0,2.41,2.41,0,0,0,1.42-2,2.44,2.44,0,0,0-1.42-2A7.6,7.6,0,0,0,231,306.2Z" style="fill:#455a64"></path><polygon points="234.44 293.44 223.27 299.89 234.44 306.34 245.61 299.89 234.44 293.44" style="fill:#fafafa"></polygon><polygon points="245.61 299.89 245.61 312.79 234.44 319.24 234.44 306.34 245.61 299.89" style="fill:#ebebeb"></polygon><polygon points="223.27 299.89 223.27 312.79 234.44 319.24 234.44 306.34 223.27 299.89" style="fill:#e0e0e0"></polygon><polygon points="296.38 317.76 285.21 324.21 296.38 330.66 307.55 324.21 296.38 317.76" style="fill:#fafafa"></polygon><polygon points="307.55 324.21 307.55 337.11 296.38 343.56 296.38 330.66 307.55 324.21" style="fill:#ebebeb"></polygon><polygon points="285.21 324.21 285.21 337.11 296.38 343.56 296.38 330.66 285.21 324.21" style="fill:#e0e0e0"></polygon><path d="M301.23,267.07a2.42,2.42,0,0,0-1.42-2,7.6,7.6,0,0,0-6.86,0,2.44,2.44,0,0,0-1.42,2v56.46a2.42,2.42,0,0,0,1.42,2,7.6,7.6,0,0,0,6.86,0,2.4,2.4,0,0,0,1.42-2Z" style="fill:#455a64"></path><path d="M293,270.45a2.41,2.41,0,0,0-1.42,2,2.44,2.44,0,0,0,1.42,2,7.6,7.6,0,0,0,6.86,0,2.42,2.42,0,0,0,1.42-2,2.39,2.39,0,0,0-1.42-2A7.54,7.54,0,0,0,293,270.45Z" style="fill:#455a64"></path><polygon points="296.38 257.68 285.21 264.13 296.38 270.58 307.55 264.13 296.38 257.68" style="fill:#fafafa"></polygon><polygon points="307.55 264.13 307.55 277.03 296.38 283.48 296.38 270.58 307.55 264.13" style="fill:#ebebeb"></polygon><polygon points="285.21 264.13 285.21 277.03 296.38 283.48 296.38 270.58 285.21 264.13" style="fill:#e0e0e0"></polygon><polygon points="169.44 266.75 234.44 304.27 327.86 250.33 262.87 212.81 169.44 266.75" style="fill:#fafafa"></polygon><polygon points="169.44 276.13 169.44 266.75 234.44 304.27 234.44 313.65 169.44 276.13" style="fill:#e0e0e0"></polygon><polygon points="327.86 250.33 327.86 259.71 234.44 313.65 234.44 304.27 327.86 250.33" style="fill:#f0f0f0"></polygon><polygon points="169.44 266.75 169.44 174.22 234.44 211.75 234.44 304.27 169.44 266.75" style="fill:#E8B4FA"></polygon><polygon points="169.44 266.75 169.44 174.22 234.44 211.75 234.44 304.27 169.44 266.75" style="fill:#fff;opacity:0.30000000000000004"></polygon><polygon points="327.86 157.81 327.86 250.34 234.44 304.27 234.44 211.75 283.18 141.39 327.86 157.81" style="fill:#E8B4FA"></polygon><polygon points="327.86 157.81 327.86 250.34 234.44 304.27 234.44 211.75 283.18 141.39 327.86 157.81" style="fill:#fff;opacity:0.6000000000000001"></polygon><path d="M289.09,168.8c0,5.84-3.55,12.64-7.94,15.17s-7.94-.15-7.94-6,3.55-12.65,7.94-15.18S289.09,163,289.09,168.8Z" style="fill:#fff"></path><polygon points="169.45 174.22 161.32 178.91 218.19 94.48 271 115.59 271 124.97 218.19 103.87 169.45 174.22" style="fill:#37474f"></polygon><polygon points="234.44 211.75 226.31 216.44 283.18 132.01 335.99 153.11 327.86 157.81 283.18 141.39 234.44 211.75" style="fill:#37474f"></polygon><polygon points="218.19 94.48 283.18 132.01 226.31 216.44 161.32 178.91 218.19 94.48" style="fill:#455a64"></polygon><polygon points="335.99 153.11 271 115.59 218.19 94.48 283.18 132.01 335.99 153.11" style="fill:#263238"></polygon><polygon points="185.69 374.63 169.44 365.25 169.44 276.13 185.69 285.51 185.69 374.63" style="fill:#E8B4FA"></polygon><polygon points="185.69 374.63 169.44 365.25 169.44 276.13 185.69 285.51 185.69 374.63" style="fill:#fff;opacity:0.30000000000000004"></polygon><polygon points="169.44 345.32 169.44 365.25 185.69 374.63 185.69 354.7 169.44 345.32" style="fill:#e0e0e0"></polygon><path d="M257.11,211.18l-10.5,6.06v50.35l12.77-7.36V209.88Zm18.77-10.84-10.5,6.06v50.35l12.77-7.37V199Zm37.54-21.67-10.5,6.06v50.35l12.77-7.37V177.36ZM294.65,189.5l-10.5,6.07v50.35l12.77-7.37V188.2Z" style="fill:#455a64"></path><path d="M246.61,217.24v47.44l10.5-6.07V211.18Zm18.77-10.84v47.44l10.5-6.06V200.34Zm18.77-10.83V243l10.5-6.07V189.5Zm18.77-10.84v47.43l10.5-6.06V178.67Z" style="fill:#E8B4FA"></path><polygon points="257.11 258.61 259.38 260.23 259.38 209.88 257.11 211.18 257.11 258.61" style="fill:#37474f"></polygon><polygon points="275.88 247.77 278.15 249.38 278.15 199.03 275.88 200.34 275.88 247.77" style="fill:#37474f"></polygon><polygon points="294.65 236.93 296.92 238.54 296.92 188.19 294.65 189.5 294.65 236.93" style="fill:#37474f"></polygon><polygon points="313.42 226.1 315.69 227.71 315.69 177.36 313.42 178.67 313.42 226.1" style="fill:#37474f"></polygon><path d="M238.18,292.66l.56-.46c.42-.34.45-.43.45-1.09v-7.3c0-.65,0-.72-.45-.57l-.56.18v-1l3.78-2.18v1l-.62.52c-.35.28-.38.43-.38,1v2.89l3.23-1.87v-2.88c0-.59,0-.7-.39-.58l-.62.2v-1l3.78-2.18v1l-.56.47c-.42.33-.44.43-.44,1.08v7.3c0,.66,0,.72.44.58l.56-.18v.95l-3.78,2.19v-1l.62-.52c.35-.28.39-.43.39-1v-3.22L241,286.93v3.22c0,.55,0,.65.38.53l.62-.2v1l-3.78,2.18Z" style="fill:#fafafa"></path><path d="M248.09,286.94l.61-.49c.42-.34.45-.43.45-1.09v-7.3c0-.65,0-.72-.45-.57l-.61.21v-1l3.89-2.25v1l-.68.55c-.35.28-.39.43-.39,1v7.39c0,.54,0,.64.39.52l.68-.23v1l-3.89,2.24Z" style="fill:#fafafa"></path><path d="M253.06,279.7c0-3.7,1.5-6.92,3.93-8.32,1-.59,1.74-.45,2.08-.2l.12-1.07.73-.42.58,3.37-.92.81c-.45-1.51-1.17-1.94-2.37-1.25-1.84,1.06-2.28,3.61-2.28,5.78,0,3.05,1.1,3.77,2.38,3a3.89,3.89,0,0,0,1.44-1.5v-1.72c0-.5,0-.7-.4-.57l-.6.2v-1l3.43-2v1l-.51.44a1.19,1.19,0,0,0-.36,1.07v3.52l-.88.51-.23-.53a6.07,6.07,0,0,1-2.08,2C254.15,284.62,253.06,282.51,253.06,279.7Z" style="fill:#fafafa"></path><path d="M261.89,279l.56-.47c.42-.34.44-.43.44-1.08v-7.31c0-.65,0-.72-.44-.57l-.56.18v-1l3.78-2.18v1l-.63.52c-.34.28-.38.43-.38,1V272l3.23-1.86v-2.89c0-.59,0-.7-.38-.58l-.62.2v-.95l3.78-2.18v1l-.57.47c-.42.34-.44.43-.44,1.08v7.31c0,.65,0,.72.44.57l.57-.18v1l-3.78,2.18v-1l.62-.52c.34-.28.38-.42.38-1v-3.22l-3.23,1.87v3.22c0,.54,0,.65.38.53l.63-.2v.95l-3.78,2.19Z" style="fill:#fafafa"></path><path d="M275.05,271.65l-.17.88-.76.44-.21-3.12.89-.67c.36,1,1,1.57,2.13.94a2.69,2.69,0,0,0,1.38-2.35c0-1-.71-1-1.77-.89-1.48.2-2.41,0-2.41-2.06a5.85,5.85,0,0,1,2.75-4.92,1.88,1.88,0,0,1,1.83-.26l.15-.89.72-.41.26,3.22-.88.72c-.42-1.43-1.08-1.67-1.95-1.17a2.52,2.52,0,0,0-1.24,2.2c0,1.12.75,1,1.81.93,1.21,0,2.44-.21,2.44,2a6.19,6.19,0,0,1-2.87,5.14A2.47,2.47,0,0,1,275.05,271.65Z" style="fill:#fafafa"></path><path d="M281,263.47c0-3.62,1.53-6.86,3.93-8.25,1.08-.62,1.72-.43,2.06-.18l.12-1.11.69-.4.47,3.48-.9.81c-.33-1.47-1-2-2.25-1.35-1.54.89-2.26,3.15-2.26,5.75,0,2.86,1.11,3.65,2.5,2.85a6.23,6.23,0,0,0,2.29-3l.73.37a8.43,8.43,0,0,1-3.28,4.3C282.56,268.23,281,267,281,263.47Z" style="fill:#fafafa"></path><path d="M289.36,263.12l.56-.47c.42-.34.44-.43.44-1.08v-7.31c0-.65,0-.72-.44-.57l-.56.18v-1l3.78-2.18v1l-.63.52c-.34.28-.38.43-.38,1v2.88l3.23-1.86v-2.89c0-.59,0-.7-.38-.57l-.62.19V250l3.77-2.18v1l-.56.47c-.42.34-.44.43-.44,1.09v7.3c0,.65,0,.72.44.57l.56-.18v1l-3.77,2.18v-1l.62-.52c.34-.28.38-.42.38-1v-3.22l-3.23,1.87v3.22c0,.54,0,.65.38.53l.63-.2v.95l-3.78,2.19Z" style="fill:#fafafa"></path><path d="M299.28,253c0-4.19,1.91-7.11,4.18-8.43s3.94-.43,3.94,3.25c0,3.41-1.39,6.89-4.07,8.44S299.28,256.13,299.28,253Zm6.28-3.83c0-2.68-.8-4-2.29-3.16s-2.13,2.7-2.13,5.6c0,2.69.71,4.17,2.3,3.25C304.76,254.07,305.56,252.22,305.56,249.14Z" style="fill:#fafafa"></path><path d="M308.51,247.64c0-4.19,1.91-7.11,4.18-8.42s3.94-.44,3.94,3.24c0,3.42-1.39,6.9-4.07,8.44S308.51,250.8,308.51,247.64Zm6.28-3.83c0-2.68-.8-4-2.29-3.16s-2.13,2.7-2.13,5.6c0,2.69.71,4.17,2.3,3.25C314,248.74,314.79,246.89,314.79,243.81Z" style="fill:#fafafa"></path><path d="M317.77,246.71l.64-.52c.34-.28.37-.44.37-1v-7.37c0-.49,0-.65-.39-.52l-.62.19v-1l4-2.28v1l-.78.59c-.35.28-.39.44-.39.93V245l1-.6c1-.59,1.41-1.39,1.85-3.57l.91-.53-.34,3.82-6.24,3.6Z" style="fill:#fafafa"></path></g></g><g id="freepik--trees-1--inject-65"><g id="freepik--tree--inject-65"><g id="freepik--tree--inject-65"><path d="M49.87,360.79a4,4,0,0,1,2.16.39,22.64,22.64,0,0,1,3.52,2.49,7.13,7.13,0,0,0,3.91,1.69,3.14,3.14,0,0,0,3.25-2.26,2.25,2.25,0,0,1,.19-.73,1,1,0,0,1,1.23-.31,6.33,6.33,0,0,1,1.18.68c1.46.86,3.28.67,5,.42,1.39-.2,3.15-.82,3.14-2.22,0-.92-.8-1.6-1.43-2.26s-1.15-1.74-.57-2.45a1.66,1.66,0,0,1,.81-.5c1.74-.56,3.87.19,5.34-.9a3.06,3.06,0,0,0,.77-3.68,4.63,4.63,0,0,0-3.14-2.39c-1.16-.3-2.65-.44-3.09-1.56s.39-2.06,1.25-2.66a9.18,9.18,0,0,0,2.52-1.9,3,3,0,0,0,.08-3.12,3.84,3.84,0,0,0-2.62-1.8,5.72,5.72,0,0,1-1.6-.35,1.07,1.07,0,0,1-.59-1.34c.16-.29.5-.44.69-.7a1.27,1.27,0,0,0-.47-1.66,6.49,6.49,0,0,0-1.78-.68c-1.26-.42-1.91-1.09-1.54-2.37s2.18-1.23,2.72-2.51-.83-3.53-1.85-4.22a22.9,22.9,0,0,0-3.35-1.49,3.57,3.57,0,0,1-2.27-2.68c-.09-1.25.85-2.3,1.61-3.3s1.42-2.39.75-3.45-2.07-1.08-3.22-1.45a5.23,5.23,0,0,1-3.18-2.86c-.3-.71-.45-1.48-.82-2.16-1.14-2.11-4-3-6.23-2.77a2.53,2.53,0,0,0-2.12,1.44,3.3,3.3,0,0,0-.77,1.46c-.17,1,.37,2.31-.59,3.09-1.46,1.18-3.7-.41-3.62,2.23a11.45,11.45,0,0,0,.49,3.29c.4,1.11,1.2,1.59.53,2.83-.85,1.61-1.41,1.61-3.13,1.6-1.25,0-2.29-.07-3.2.88-1.6,1.66-.65,3.16.78,4.44,1.62,1.45.76,2.09.55,4-.11.91.1,1.19-.71,1.79-1.53,1.14-2.39.75-2,3,.39,2-.21,1.34-2,2.1-1.56.67-2.59,2.35-3.86,3.41-.81.67-2.05,1.19-2.13,2.38-.15,2.27,2.67,1.77,4,2.31,2.19.89,1.53,3.76-.18,4.84s-4.45,1.56-4.6,4.16c-.11,2,1,2.43,2.57,3.1,1.23.53,1.08.68,1.08,2.16,0,3,1,3.81,3.92,3.33a7.19,7.19,0,0,1,2.83-.24c1.12.34.74.62.77,1.55.08,2.4,2.88,1.73,4.06.7C46.31,362.35,48,361,49.87,360.79Z" style="fill:#E8B4FA"></path><path d="M72.22,355.73c1.33-.43,2.9-.09,4.22-.4a14,14,0,0,0-2.37-.37,6.68,6.68,0,0,0-5.1,2,4.61,4.61,0,0,1,1,3.07c-3.32.9-6.58-3.55-9.75-2.2.2,1.61,0,3.77-1.55,4.12a2.58,2.58,0,0,1-2.42-1.16c-.57-.75-.92-1.65-1.49-2.4a5.07,5.07,0,0,0-6.75-1c-.86.62-1.93,1.56-2.79.94s-.36-2.48-1.37-3c-.68-.34-1.62.2-2.19-.3a1.55,1.55,0,0,1-.38-.83c-.41-1.7-.76-3.66.31-5,1-1.22,3-2,2.75-3.51-.19-1.32-1.86-1.71-3.18-1.87s-3-.77-2.91-2.1,1.82-1.92,2.08-3.2c.11-.55-.07-1.15.18-1.65.37-.75,1.44-.78,2.07-1.33,1.13-1,.25-2.86.57-4.33.23-1,1.07-1.86,1.35-2.89.56-2-1.31-4-3.26-4.84a11.6,11.6,0,0,1-2.23-1l-.07-.05A4.08,4.08,0,0,0,40.57,325c1.62,1.45.76,2.09.55,4-.11.91.1,1.19-.71,1.79-1.53,1.14-2.39.75-2,3,.39,2-.21,1.34-2,2.1-1.56.67-2.59,2.35-3.86,3.41-.81.67-2.05,1.19-2.13,2.38-.15,2.27,2.67,1.77,4,2.31,2.19.89,1.53,3.76-.18,4.84s-4.45,1.56-4.6,4.16c-.11,2,1,2.43,2.57,3.1,1.23.53,1.08.68,1.08,2.16,0,3,1,3.81,3.92,3.33a7.19,7.19,0,0,1,2.83-.24c1.12.34.74.62.77,1.55.08,2.4,2.88,1.73,4.06.7,1.36-1.18,3.08-2.56,4.92-2.74a4,4,0,0,1,2.16.39,22.64,22.64,0,0,1,3.52,2.49,7.13,7.13,0,0,0,3.91,1.69,3.14,3.14,0,0,0,3.25-2.26,2.25,2.25,0,0,1,.19-.73,1,1,0,0,1,1.23-.31,6.33,6.33,0,0,1,1.18.68c1.46.86,3.28.67,5,.42,1.39-.2,3.15-.82,3.14-2.22,0-.92-.8-1.6-1.43-2.26s-1.15-1.74-.57-2.45A1.66,1.66,0,0,1,72.22,355.73Z" style="opacity:0.2"></path><path d="M45.31,336.32l8,15.85v-7.3l.81-31.06,1.19,31.06v4.91l8.78-15.36L55.3,353.28v48.14a.49.49,0,0,1-.3.41,1.53,1.53,0,0,1-1.41,0,.5.5,0,0,1-.29-.41V356.21Z" style="fill:#263238"></path></g></g><g id="freepik--tree--inject-65"><g id="freepik--tree--inject-65"><path d="M78.39,379.66a3.61,3.61,0,0,1,2,.35,20.57,20.57,0,0,1,3.18,2.25,6.45,6.45,0,0,0,3.53,1.53A2.84,2.84,0,0,0,90,381.74a1.79,1.79,0,0,1,.17-.65.94.94,0,0,1,1.11-.29,5.73,5.73,0,0,1,1.07.62c1.32.78,3,.6,4.48.38,1.26-.18,2.85-.74,2.85-2,0-.83-.73-1.44-1.3-2.05s-1-1.56-.52-2.21a1.53,1.53,0,0,1,.73-.44c1.58-.52,3.5.17,4.83-.82a2.77,2.77,0,0,0,.7-3.33,4.22,4.22,0,0,0-2.83-2.16c-1.06-.27-2.4-.39-2.8-1.41a2.23,2.23,0,0,1,1.13-2.4,8.3,8.3,0,0,0,2.27-1.72,2.72,2.72,0,0,0,.08-2.82,3.5,3.5,0,0,0-2.37-1.63,5.28,5.28,0,0,1-1.44-.31,1,1,0,0,1-.54-1.21c.15-.26.45-.4.62-.64a1.16,1.16,0,0,0-.42-1.5,6,6,0,0,0-1.61-.61c-1.14-.38-1.73-1-1.39-2.14s2-1.12,2.46-2.27-.76-3.19-1.67-3.82a22.89,22.89,0,0,0-3-1.35,3.25,3.25,0,0,1-2.06-2.41c-.08-1.13.77-2.09,1.46-3s1.28-2.16.68-3.12-1.87-1-2.91-1.31a4.7,4.7,0,0,1-2.87-2.58c-.28-.64-.41-1.34-.74-2-1-1.91-3.63-2.74-5.64-2.51a2.27,2.27,0,0,0-1.91,1.3,3,3,0,0,0-.7,1.32c-.16.92.33,2.09-.54,2.79-1.32,1.07-3.34-.37-3.27,2a10.4,10.4,0,0,0,.45,3c.36,1,1.08,1.43.48,2.56-.78,1.45-1.28,1.45-2.84,1.44-1.12,0-2.06-.06-2.88.79-1.45,1.5-.59,2.86.7,4,1.46,1.31.68,1.88.49,3.59-.09.82.1,1.07-.64,1.61-1.38,1-2.16.68-1.77,2.7.36,1.84-.19,1.21-1.78,1.89-1.42.61-2.35,2.13-3.49,3.08-.74.61-1.86,1.09-1.93,2.16-.13,2.05,2.42,1.6,3.63,2.09,2,.8,1.39,3.4-.16,4.37s-4,1.41-4.15,3.76c-.1,1.8.92,2.2,2.32,2.8,1.11.48,1,.62,1,1.95,0,2.69.9,3.45,3.55,3a6.7,6.7,0,0,1,2.55-.21c1,.31.67.56.7,1.4.07,2.17,2.6,1.56,3.67.63C75.17,381.06,76.72,379.82,78.39,379.66Z" style="fill:#E8B4FA"></path><path d="M78.39,379.66a3.61,3.61,0,0,1,2,.35,20.57,20.57,0,0,1,3.18,2.25,6.45,6.45,0,0,0,3.53,1.53A2.84,2.84,0,0,0,90,381.74a1.79,1.79,0,0,1,.17-.65.94.94,0,0,1,1.11-.29,5.73,5.73,0,0,1,1.07.62c1.32.78,3,.6,4.48.38,1.26-.18,2.85-.74,2.85-2,0-.83-.73-1.44-1.3-2.05s-1-1.56-.52-2.21a1.53,1.53,0,0,1,.73-.44c1.58-.52,3.5.17,4.83-.82a2.77,2.77,0,0,0,.7-3.33,4.22,4.22,0,0,0-2.83-2.16c-1.06-.27-2.4-.39-2.8-1.41a2.23,2.23,0,0,1,1.13-2.4,8.3,8.3,0,0,0,2.27-1.72,2.72,2.72,0,0,0,.08-2.82,3.5,3.5,0,0,0-2.37-1.63,5.28,5.28,0,0,1-1.44-.31,1,1,0,0,1-.54-1.21c.15-.26.45-.4.62-.64a1.16,1.16,0,0,0-.42-1.5,6,6,0,0,0-1.61-.61c-1.14-.38-1.73-1-1.39-2.14s2-1.12,2.46-2.27-.76-3.19-1.67-3.82a22.89,22.89,0,0,0-3-1.35,3.25,3.25,0,0,1-2.06-2.41c-.08-1.13.77-2.09,1.46-3s1.28-2.16.68-3.12-1.87-1-2.91-1.31a4.7,4.7,0,0,1-2.87-2.58c-.28-.64-.41-1.34-.74-2-1-1.91-3.63-2.74-5.64-2.51a2.27,2.27,0,0,0-1.91,1.3,3,3,0,0,0-.7,1.32c-.16.92.33,2.09-.54,2.79-1.32,1.07-3.34-.37-3.27,2a10.4,10.4,0,0,0,.45,3c.36,1,1.08,1.43.48,2.56-.78,1.45-1.28,1.45-2.84,1.44-1.12,0-2.06-.06-2.88.79-1.45,1.5-.59,2.86.7,4,1.46,1.31.68,1.88.49,3.59-.09.82.1,1.07-.64,1.61-1.38,1-2.16.68-1.77,2.7.36,1.84-.19,1.21-1.78,1.89-1.42.61-2.35,2.13-3.49,3.08-.74.61-1.86,1.09-1.93,2.16-.13,2.05,2.42,1.6,3.63,2.09,2,.8,1.39,3.4-.16,4.37s-4,1.41-4.15,3.76c-.1,1.8.92,2.2,2.32,2.8,1.11.48,1,.62,1,1.95,0,2.69.9,3.45,3.55,3a6.7,6.7,0,0,1,2.55-.21c1,.31.67.56.7,1.4.07,2.17,2.6,1.56,3.67.63C75.17,381.06,76.72,379.82,78.39,379.66Z" style="opacity:0.30000000000000004"></path><path d="M98.58,375.09c1.21-.4,2.63-.09,3.82-.37a14.85,14.85,0,0,0-2.14-.34,6.12,6.12,0,0,0-4.62,1.83,4.12,4.12,0,0,1,.93,2.77c-3,.82-5.95-3.2-8.81-2,.18,1.45,0,3.4-1.41,3.72a2.3,2.3,0,0,1-2.18-1.05c-.51-.68-.83-1.49-1.35-2.17a4.58,4.58,0,0,0-6.1-.88c-.77.56-1.74,1.41-2.52.85s-.32-2.24-1.24-2.7c-.61-.3-1.47.18-2-.27a1.41,1.41,0,0,1-.35-.75c-.36-1.53-.67-3.3.29-4.55s2.68-1.79,2.48-3.18c-.17-1.18-1.67-1.54-2.87-1.68s-2.69-.7-2.63-1.9,1.65-1.74,1.88-2.89c.1-.5-.07-1,.16-1.49.34-.68,1.31-.71,1.87-1.21,1-.9.23-2.59.52-3.91.21-.95,1-1.68,1.22-2.61.5-1.86-1.18-3.62-3-4.38a10.48,10.48,0,0,1-2-.93l-.06,0A3.67,3.67,0,0,0,70,347.3c1.46,1.31.68,1.88.49,3.59-.09.82.1,1.07-.64,1.61-1.38,1-2.16.68-1.77,2.7.36,1.84-.19,1.21-1.78,1.89-1.42.61-2.35,2.13-3.49,3.08-.74.61-1.86,1.09-1.93,2.16-.13,2.05,2.42,1.6,3.63,2.09,2,.8,1.39,3.4-.16,4.37s-4,1.41-4.15,3.76c-.1,1.8.92,2.2,2.32,2.8,1.11.48,1,.62,1,1.95,0,2.69.9,3.45,3.55,3a6.7,6.7,0,0,1,2.55-.21c1,.31.67.56.7,1.4.07,2.17,2.6,1.56,3.67.63,1.23-1.07,2.78-2.31,4.45-2.47a3.61,3.61,0,0,1,2,.35,20.57,20.57,0,0,1,3.18,2.25,6.45,6.45,0,0,0,3.53,1.53A2.84,2.84,0,0,0,90,381.74a1.79,1.79,0,0,1,.17-.65.94.94,0,0,1,1.11-.29,5.73,5.73,0,0,1,1.07.62c1.32.78,3,.6,4.48.38,1.26-.18,2.85-.74,2.85-2,0-.83-.73-1.44-1.3-2.05s-1-1.56-.52-2.21A1.53,1.53,0,0,1,98.58,375.09Z" style="opacity:0.2"></path><path d="M74.26,357.54l7.23,14.32v-6.59l.73-28.08,1.07,28.08v4.44l7.94-13.89-7.94,17v43.52a.45.45,0,0,1-.26.37,1.38,1.38,0,0,1-1.28,0,.43.43,0,0,1-.26-.37V375.52Z" style="fill:#263238"></path></g></g></g><g id="freepik--Flag--inject-65"><g id="freepik--flag--inject-65"><path d="M176.94,202.74a.61.61,0,0,0-.35-.49,1.86,1.86,0,0,0-1.69,0,.59.59,0,0,0-.35.49V385.59a.6.6,0,0,0,.35.49,1.86,1.86,0,0,0,1.69,0,.62.62,0,0,0,.35-.49Z" style="fill:#455a64"></path><path d="M187.62,214c-3.64-4.88-8-10.39-11.34-6.55v18.59c3.33-3.85,7.7,1.67,11.34,6.55s8.09,6.38,9.48,4.4V218.41C195.71,220.39,191.27,218.89,187.62,214Z" style="fill:#fafafa"></path></g></g></svg>