<svg id="visual" viewBox="0 0 960 540" width="960" height="540" xmlns="http://www.w3.org/2000/svg" xmlns:xlink="http://www.w3.org/1999/xlink" version="1.1"><rect x="0" y="0" width="960" height="540" fill="#1864AB"></rect><path d="M0 363L22.8 360.2C45.7 357.3 91.3 351.7 137 353.3C182.7 355 228.3 364 274 374.7C319.7 385.3 365.3 397.7 411.2 394.7C457 391.7 503 373.3 548.8 383.2C594.7 393 640.3 431 686 445.3C731.7 459.7 777.3 450.3 823 439.2C868.7 428 914.3 415 937.2 408.5L960 402L960 541L937.2 541C914.3 541 868.7 541 823 541C777.3 541 731.7 541 686 541C640.3 541 594.7 541 548.8 541C503 541 457 541 411.2 541C365.3 541 319.7 541 274 541C228.3 541 182.7 541 137 541C91.3 541 45.7 541 22.8 541L0 541Z" fill="#F8F9FA" stroke-linecap="round" stroke-linejoin="miter"></path></svg>