<svg id="visual" viewBox="0 0 960 540" width="960" height="540" xmlns="http://www.w3.org/2000/svg" xmlns:xlink="http://www.w3.org/1999/xlink" version="1.1"><rect x="0" y="0" width="960" height="540" fill="#FFFFFF"></rect><path d="M0 466L22.8 464.7C45.7 463.3 91.3 460.7 137 448.3C182.7 436 228.3 414 274 398.7C319.7 383.3 365.3 374.7 411.2 379.2C457 383.7 503 401.3 548.8 413.5C594.7 425.7 640.3 432.3 686 434.8C731.7 437.3 777.3 435.7 823 428.2C868.7 420.7 914.3 407.3 937.2 400.7L960 394L960 541L937.2 541C914.3 541 868.7 541 823 541C777.3 541 731.7 541 686 541C640.3 541 594.7 541 548.8 541C503 541 457 541 411.2 541C365.3 541 319.7 541 274 541C228.3 541 182.7 541 137 541C91.3 541 45.7 541 22.8 541L0 541Z" fill="#F8F9FA" stroke-linecap="round" stroke-linejoin="miter"></path></svg>